HIERARCHY
ROOT Hips
{
	OFFSET 181.407898 92.019173 39.530121
	CHANNELS 6 Xposition Yposition Zposition Zrotation Yrotation Xrotation 
	JOINT LeftUpLeg
	{
		OFFSET 0.103458 1.857830 10.548511
		CHANNELS 3 Zrotation Yrotation Xrotation
		JOINT LeftLeg
		{
			OFFSET 43.500000 -0.000034 0.000002
			CHANNELS 3 Zrotation Yrotation Xrotation
			JOINT LeftFoot
			{
				OFFSET 42.372192 0.000015 -0.000005
				CHANNELS 3 Zrotation Yrotation Xrotation
				JOINT LeftToe
				{
					OFFSET 17.299999 -0.000002 0.000006
					CHANNELS 3 Zrotation Yrotation Xrotation
					End Site
					{
						OFFSET 0.000000 0.000000 0.000000
					}
				}
			}
		}
	}
	JOINT RightUpLeg
	{
		OFFSET 0.103456 1.857828 -10.548506
		CHANNELS 3 Zrotation Yrotation Xrotation
		JOINT RightLeg
		{
			OFFSET 43.500038 -0.000023 0.000004
			CHANNELS 3 Zrotation Yrotation Xrotation
			JOINT RightFoot
			{
				OFFSET 42.372265 -0.000004 0.000015
				CHANNELS 3 Zrotation Yrotation Xrotation
				JOINT RightToe
				{
					OFFSET 17.299994 -0.000005 -0.000004
					CHANNELS 3 Zrotation Yrotation Xrotation
					End Site
					{
						OFFSET 0.000000 0.000000 0.000000
					}
				}
			}
		}
	}
	JOINT Spine
	{
		OFFSET 6.901968 -2.603730 -0.000005
		CHANNELS 3 Zrotation Yrotation Xrotation
		JOINT Spine1
		{
			OFFSET 12.588101 -0.000001 0.000008
			CHANNELS 3 Zrotation Yrotation Xrotation
			JOINT Spine2
			{
				OFFSET 12.343199 -0.000002 0.000004
				CHANNELS 3 Zrotation Yrotation Xrotation
				JOINT Neck
				{
					OFFSET 25.832901 -0.000004 -0.000011
					CHANNELS 3 Zrotation Yrotation Xrotation
					JOINT Head
					{
						OFFSET 11.766607 0.000005 0.000000
						CHANNELS 3 Zrotation Yrotation Xrotation
						End Site
						{
							OFFSET 0.000000 0.000000 0.000000
						}
					}
				}
				JOINT LeftShoulder
				{
					OFFSET 19.745911 -1.480373 6.000101
					CHANNELS 3 Zrotation Yrotation Xrotation
					JOINT LeftArm
					{
						OFFSET 11.284123 -0.000010 -0.000027
						CHANNELS 3 Zrotation Yrotation Xrotation
						JOINT LeftForeArm
						{
							OFFSET 33.000042 0.000003 0.000027
							CHANNELS 3 Zrotation Yrotation Xrotation
							JOINT LeftHand
							{
								OFFSET 25.200010 0.000018 0.000014
								CHANNELS 3 Zrotation Yrotation Xrotation
								End Site
								{
									OFFSET 0.000000 0.000000 0.000000
								}
							}
						}
					}
				}
				JOINT RightShoulder
				{
					OFFSET 19.746101 -1.480375 -6.000073
					CHANNELS 3 Zrotation Yrotation Xrotation
					JOINT RightArm
					{
						OFFSET 11.284151 -0.000017 -0.000003
						CHANNELS 3 Zrotation Yrotation Xrotation
						JOINT RightForeArm
						{
							OFFSET 33.000095 0.000018 0.000001
							CHANNELS 3 Zrotation Yrotation Xrotation
							JOINT RightHand
							{
								OFFSET 25.199774 0.000135 0.000424
								CHANNELS 3 Zrotation Yrotation Xrotation
								End Site
								{
									OFFSET 0.000000 0.000000 0.000000
								}
							}
						}
					}
				}
			}
		}
	}
}
MOTION
Frames: 11
Frame Time: 0.033333
151.154602 13.850850 73.573334 93.134936 57.905913 97.813479 92.539535 -21.133999 -123.391001 -153.532817 1.078271 20.324884 93.808461 -14.729880 -4.880423 21.454550 0.003089 -0.000001 108.852131 18.769112 134.380680 -151.353003 -1.791239 -9.411668 103.140501 7.249606 13.669792 21.454560 -0.003103 -0.000015 16.872229 -0.444692 0.403391 23.729453 -0.962609 0.707099 23.411322 -0.958169 0.712917 33.356861 -7.473975 -0.226859 -15.086650 2.502222 -0.925641 -175.344603 -78.467986 -6.196665 57.556775 43.253365 87.254861 -20.592602 -10.848649 0.815323 -7.390693 -23.417022 8.213027 120.020726 74.587517 -59.717956 63.071230 -53.932427 -95.643276 -54.940396 11.638309 -1.721224 10.906206 42.569233 -2.362287 
151.074493 13.415890 75.042847 93.670478 56.738668 98.390767 91.763926 -21.339604 -119.389972 -154.313084 0.827543 22.425063 95.786839 -16.126268 -5.814059 21.454555 0.003099 0.000001 107.948223 20.237589 130.614609 -152.664919 -1.506921 -11.206733 105.299018 8.163495 14.365015 21.454555 -0.003119 -0.000019 17.087918 -0.405435 0.723626 24.158174 -0.952865 1.346759 23.840126 -0.944580 1.352504 34.413065 -5.420174 -0.783428 -16.989773 3.821476 -2.081650 -176.165100 -76.699643 -5.335342 51.903615 43.716424 84.165764 -17.160220 -9.632968 0.700024 -5.947154 -23.561783 8.605005 119.915801 73.892531 -59.888499 65.262929 -54.257858 -101.344694 -52.213805 13.583679 -1.758842 11.416240 45.089678 -1.608625 
150.982803 13.215660 76.062180 93.342321 55.061888 98.028726 91.075996 -21.450400 -116.404660 -154.820608 0.622103 23.649129 97.523668 -16.873497 -6.412162 21.454553 0.003097 -0.000001 106.968303 20.874108 128.602381 -153.488503 -1.394241 -12.179563 106.855318 8.590652 14.982179 21.454557 -0.003117 -0.000021 17.326933 -0.299412 0.850762 24.636050 -0.772899 1.618349 24.318057 -0.762971 1.623003 35.685495 -3.410818 -0.991726 -18.389878 4.275166 -2.582110 -178.759889 -74.907006 -2.650126 46.805750 45.200881 83.579058 -14.417747 -8.061384 0.575170 -1.775642 -24.069406 6.086199 122.160037 73.308154 -57.679568 63.182569 -56.671230 -100.791599 -46.564760 12.210841 -1.487799 10.818489 46.688011 1.587480 
150.838806 13.541590 76.297707 92.918214 52.837886 97.349990 91.540313 -21.557904 -116.935789 -154.865496 0.681973 22.690570 99.307385 -16.132994 -7.208510 21.454553 0.003098 -0.000001 106.331941 20.486801 129.181922 -153.634983 -1.482199 -11.644324 107.741692 8.115361 15.445634 21.454557 -0.003104 -0.000016 17.740557 -0.133562 0.816998 25.465377 -0.443357 1.584634 25.147385 -0.433649 1.587287 35.887030 -2.388136 -1.196209 -20.009625 4.126621 -2.870569 176.412913 -72.422654 2.362848 41.109478 48.507047 82.849477 -10.935274 -6.366373 0.443718 2.267746 -26.162643 2.973851 126.636079 71.949520 -53.280209 56.387190 -58.592990 -97.676999 -41.862636 12.242239 -1.354966 14.339239 48.327970 8.196492 
150.780304 14.304340 75.982071 92.276880 49.271940 95.901026 91.932987 -22.202901 -120.011246 -154.605198 0.917961 20.371403 101.247500 -14.431551 -7.906533 21.454550 0.003101 -0.000001 104.706861 18.874295 131.118786 -153.200405 -1.617341 -10.128703 107.925103 7.087360 15.882024 21.454558 -0.003106 -0.000016 17.974918 -0.004125 0.720577 25.935951 -0.169376 1.421905 25.617961 -0.160654 1.422912 35.119750 -2.106499 -1.080462 -21.512429 3.324631 -2.498770 171.538794 -71.137438 7.418992 35.265506 52.838490 80.870608 -8.848435 -6.109097 0.419180 4.935280 -23.268781 -3.629827 130.494808 70.805136 -49.471436 47.056554 -60.215733 -91.253479 -36.972702 11.969213 -1.211624 17.187088 46.760346 13.378037 
150.742706 15.783770 75.049606 91.153690 45.066794 93.833480 93.026254 -23.132712 -125.326827 -153.646608 1.351598 16.772808 103.334615 -11.892924 -9.225008 21.454551 0.003098 -0.000001 103.417206 16.412296 135.879729 -151.817989 -2.015252 -7.166256 107.474201 5.212244 16.493102 21.454560 -0.003119 -0.000019 18.186733 0.254523 0.544490 26.362683 0.378536 1.132540 26.044633 0.385507 1.130240 33.608571 -3.625750 -1.070505 -23.067924 2.428931 -2.135119 168.550313 -70.831541 10.507622 26.364879 56.135351 73.473957 -9.847946 -7.416746 0.508317 6.596371 -13.329806 -4.691413 132.302485 69.388985 -47.758650 34.675614 -60.796777 -81.602756 -32.420968 11.316693 -1.066841 19.659687 43.520845 18.088827 
150.619095 18.005501 73.839867 89.691736 40.356630 91.977875 94.074675 -23.763700 -131.184233 -151.884597 1.835208 12.834509 105.091695 -9.145197 -10.578297 21.454553 0.003092 -0.000001 102.874909 14.453809 142.495996 -149.604502 -2.567195 -3.551929 107.294991 2.851938 17.141936 21.454558 -0.003106 -0.000017 18.268681 0.678001 0.354852 26.530866 1.256749 0.855413 26.212733 1.262017 0.847834 30.536891 -5.327227 -0.931325 -22.934390 1.087715 -1.502752 164.585088 -70.299182 14.612797 12.599925 56.216050 66.029781 -13.112817 -7.895379 0.555608 5.358954 -3.178206 5.004434 133.778708 67.831579 -46.390515 21.125638 -59.485962 -71.511486 -28.321798 10.420223 -0.929074 21.581067 40.694339 21.791715 
150.538300 20.920719 72.555389 89.270634 35.742257 90.708962 96.048770 -24.767594 -138.849071 -149.241109 2.512977 8.657257 106.361502 -6.267829 -11.421015 21.454551 0.003096 -0.000002 102.689941 12.875306 148.364208 -146.625788 -3.170688 -0.151945 107.077613 0.636737 17.346932 21.454558 -0.003101 -0.000015 18.190790 0.907271 0.095507 26.374977 1.768880 0.394894 26.056726 1.771371 0.384214 28.487165 -7.090808 -0.774847 -22.953704 0.043164 -1.022539 157.969011 -69.967645 21.435203 -0.164682 54.417562 57.701220 -17.189902 -9.257136 0.675950 10.550107 3.671843 4.707344 135.087495 65.980222 -45.214264 9.987103 -56.619741 -64.374362 -23.746126 9.993597 -0.827314 22.435672 35.439618 22.080308 
150.511093 24.307211 71.420738 88.707874 32.000543 89.895405 98.757371 -25.368813 -145.515623 -145.922388 3.111086 5.260678 107.394302 -3.930429 -12.107737 21.454550 0.003092 -0.000003 103.879186 12.347198 153.937014 -142.898704 -3.748158 2.570790 107.130308 -1.188791 17.292337 21.454555 -0.003108 -0.000018 18.118706 1.153427 -0.210592 26.228377 2.324402 -0.154810 25.909998 2.323561 -0.168827 25.794437 -7.938321 -0.433608 -22.409183 -0.927168 -0.460249 151.721669 -71.183105 27.770347 -12.739032 52.229097 45.802043 -18.168549 -10.415022 0.760404 14.184355 6.096109 4.883455 137.152493 64.387223 -43.237450 2.517758 -51.928648 -59.910881 -20.556812 11.411022 -0.876349 16.379992 25.434371 11.155677 
150.618301 27.911110 70.505669 88.557084 28.792089 89.378250 102.214280 -25.810516 -151.551912 -142.087592 3.568408 2.763301 108.473895 -2.168101 -12.893640 21.454557 0.003094 0.000001 105.457909 12.391008 158.028584 -138.751004 -4.174908 4.396664 107.141708 -2.424704 17.147764 21.454562 -0.003098 -0.000016 17.865716 1.215910 -0.544659 25.715845 2.522146 -0.806112 25.397433 2.517355 -0.821310 22.796192 -7.548698 0.132357 -20.410748 -1.848200 0.310975 141.949199 -72.028661 37.693065 -20.617049 47.446165 35.497620 -19.745973 -10.956510 0.812333 14.489628 5.940810 10.743652 137.677694 63.660983 -42.760331 -2.784171 -46.248078 -52.581262 -21.234817 13.585391 -1.023790 11.025644 9.128215 -7.511071 
150.679794 31.644730 69.709534 88.270284 26.349999 89.091007 105.722634 -25.940101 -156.415225 -137.811088 3.930268 0.914115 108.988994 -0.891178 -13.382489 21.454551 0.003080 -0.000000 107.816216 12.720395 161.704182 -134.225307 -4.443065 5.672062 106.965899 -3.281650 16.829907 21.454558 -0.003101 -0.000016 17.569279 1.259056 -0.908079 25.114590 2.684769 -1.521963 24.796235 2.675663 -1.538135 19.638571 -6.646124 0.608769 -18.641492 -2.522274 0.915801 132.420907 -72.897584 47.309169 -24.973487 41.699138 26.320692 -21.983097 -12.116705 0.914407 12.878410 2.072623 10.505923 136.291603 64.038242 -44.148820 -8.976799 -40.651998 -43.240592 -23.794752 13.793833 -1.072412 10.948202 -3.986099 -19.086178 
